<svg xmlns="http://www.w3.org/2000/svg" viewBox="0 0 360 220" role="img" aria-labelledby="title desc">
  <title id="title">Ride request route</title>
  <desc id="desc">A dispatch car following a route between two locations.</desc>
  <defs>
    <linearGradient id="road" x1="0" y1="0" x2="1" y2="1"><stop stop-color="#d7e4f7"/><stop offset="1" stop-color="#b8cbea"/></linearGradient>
    <filter id="shadow" x="-50%" y="-50%" width="200%" height="200%"><feDropShadow dx="0" dy="10" stdDeviation="10" flood-color="#1d4ed8" flood-opacity=".18"/></filter>
  </defs>
  <path d="M36 164c36-80 85 12 130-53 33-47 62 7 98-31 22-23 37-27 62-24" fill="none" stroke="url(#road)" stroke-width="5" stroke-linecap="round" stroke-dasharray="8 12"/>
  <g transform="translate(27 151)"><circle r="14" fill="#fff" stroke="#2563eb" stroke-width="5"/><circle r="4" fill="#2563eb"/></g>
  <g transform="translate(328 55)"><path d="M0-18c10 0 18 8 18 18 0 13-18 31-18 31S-18 13-18 0c0-10 8-18 18-18Z" fill="#16a36f"/><circle r="6" fill="#fff"/></g>
  <g filter="url(#shadow)" transform="translate(148 76) rotate(-8)">
    <rect width="82" height="58" rx="18" fill="#2563eb"/>
    <path d="M22 19h38l8 17H14l8-17Z" fill="#dbeafe"/>
    <path d="M29 20h11v15H21l8-15Zm15 0h11l7 15H44V20Z" fill="#f0f6ff"/>
    <circle cx="21" cy="46" r="5" fill="#172554"/><circle cx="61" cy="46" r="5" fill="#172554"/>
    <rect x="3" y="35" width="9" height="6" rx="3" fill="#fde68a"/><rect x="70" y="35" width="9" height="6" rx="3" fill="#fde68a"/>
  </g>
  <circle cx="90" cy="48" r="36" fill="#eff6ff" opacity=".9"/><circle cx="289" cy="158" r="25" fill="#e8f7f1" opacity=".9"/>
  <path d="M76 48h28M90 34v28" stroke="#b8cbea" stroke-width="3" stroke-linecap="round"/>
  <path d="m280 158 7 7 13-16" fill="none" stroke="#69b99b" stroke-width="3" stroke-linecap="round" stroke-linejoin="round"/>
</svg>
